HIERARCHY
ROOT root
{
	OFFSET	0	13.1	24.9
	CHANNELS 6  Xposition Yposition Zposition Xrotation Yrotation Zrotation
	JOINT spine_1
	{
		OFFSET	0	9.99999	0
		CHANNELS 3  Xrotation Yrotation Zrotation
		JOINT spine_2
		{
			OFFSET	0	112	-10
			CHANNELS 3  Xrotation Yrotation Zrotation
			JOINT spine_3
			{
				OFFSET	0	206.5	19.3
				CHANNELS 3  Xrotation Yrotation Zrotation
				JOINT spine_4
				{
					OFFSET	0	110.4	14.6
					CHANNELS 3  Xrotation Yrotation Zrotation
					JOINT neck_1
					{
						OFFSET	0	71.8	-50.3
						CHANNELS 3  Xrotation Yrotation Zrotation
						JOINT neck_2
						{
							OFFSET	0	86.2	-25.8
							CHANNELS 3  Xrotation Yrotation Zrotation
							JOINT head_ee
							{
								OFFSET	0	179.8	-8.7
								CHANNELS 3  Xrotation Yrotation Zrotation
								End Site
								{
									OFFSET	1	0	0
								}
							}
						}
					}
					JOINT left_clavicle
					{
						OFFSET	-43.2	22.4	-70.8
						CHANNELS 3  Xrotation Yrotation Zrotation
						JOINT left_shoulder
						{
							OFFSET	-93.9	-5.79999	48.7
							CHANNELS 3  Xrotation Yrotation Zrotation
							JOINT left_elbow
							{
								OFFSET	-291.4	-30.8	15.2
								CHANNELS 3  Xrotation Yrotation Zrotation
								JOINT left_lowarm_twist
								{
									OFFSET	-110.7	-3.89999	13.6
									CHANNELS 3  Xrotation Yrotation Zrotation
									JOINT left_hand
									{
										OFFSET	-110.7	-3.89999	13.6
										CHANNELS 3  Xrotation Yrotation Zrotation
										JOINT left_ee
										{
											OFFSET	-80.8	-5.10001	12.1
											CHANNELS 3  Xrotation Yrotation Zrotation
											End Site
											{
												OFFSET	1	0	0
											}
										}
									}
								}
							}
						}
					}
					JOINT right_clavicle
					{
						OFFSET	43.2	22.4	-70.8
						CHANNELS 3  Xrotation Yrotation Zrotation
						JOINT right_shoulder
						{
							OFFSET	93.9	-5.79999	48.7
							CHANNELS 3  Xrotation Yrotation Zrotation
							JOINT right_elbow
							{
								OFFSET	291.4	-30.8	15.2
								CHANNELS 3  Xrotation Yrotation Zrotation
								JOINT right_lowarm_twist
								{
									OFFSET	110.7	-3.89999	13.6
									CHANNELS 3  Xrotation Yrotation Zrotation
									JOINT right_hand
									{
										OFFSET	110.7	-3.89999	13.6
										CHANNELS 3  Xrotation Yrotation Zrotation
										JOINT right_ee
										{
											OFFSET	80.8	-5.10001	12.1
											CHANNELS 3  Xrotation Yrotation Zrotation
											End Site
											{
												OFFSET	1	0	0
											}
										}
									}
								}
							}
						}
					}
				}
			}
		}
	}
	JOINT left_hip
	{
		OFFSET	-82.8	-127.5	0.300001
		CHANNELS 3  Xrotation Yrotation Zrotation
		JOINT left_knee
		{
			OFFSET	-28.2	-396.7	2.2
			CHANNELS 3  Xrotation Yrotation Zrotation
			JOINT left_ankle
			{
				OFFSET	-11.7	-411.3	35.4
				CHANNELS 3  Xrotation Yrotation Zrotation
				JOINT left_toes
				{
					OFFSET	0	-60	-88.6
					CHANNELS 3  Xrotation Yrotation Zrotation
					JOINT left_foot_ee
					{
						OFFSET	-22.5	-16.5	-42.2
						CHANNELS 3  Xrotation Yrotation Zrotation
						End Site
						{
							OFFSET	1	0	0
						}
					}
				}
			}
		}
	}
	JOINT right_hip
	{
		OFFSET	82.8	-127.5	0.300001
		CHANNELS 3  Xrotation Yrotation Zrotation
		JOINT right_knee
		{
			OFFSET	28.2	-396.7	2.2
			CHANNELS 3  Xrotation Yrotation Zrotation
			JOINT right_ankle
			{
				OFFSET	11.7	-411.3	35.4
				CHANNELS 3  Xrotation Yrotation Zrotation
				JOINT right_toes
				{
					OFFSET	0	-60	-88.6
					CHANNELS 3  Xrotation Yrotation Zrotation
					JOINT right_foot_ee
					{
						OFFSET	22.5	-16.5	-42.2
						CHANNELS 3  Xrotation Yrotation Zrotation
						End Site
						{
							OFFSET	1	0	0
						}
					}
				}
			}
		}
	}
}
MOTION
Frames: 5
Frame Time: 0.02
3956.73 637.032 -203.369 -27.7298 47.3792 19.8503 6.0213 0.643568 0.623915 6.02131 0.602563 0.663602 6.02821 0.528622 0.723883 6.02804 0.63631 0.631316 -9.49008 5.30412 -2.18974 -9.50683 11.4593 -0.862868 -0.0 0.0 -0.0 -4.63703 20.0999 -4.4861 -9.57692 -7.3613 83.7589 0.506452 -14.084 0.0625615 76.471 -3.43801 -8.39846 -3.5876 25.1837 -10.2866 -0.0 0.0 -0.0 6.41595 29.4095 -10.5805 -10.1329 41.8598 -74.1467 0.455395 12.7127 -0.0507299 -64.4233 5.83741 -5.21745 -6.5606 -29.3887 24.5562 0.0 0.0 0.0 28.307 11.601 -0.59238 -10.0328 0.281296 1.51205 42.0804 25.5428 -5.38211 -23.9035 0.0 0.0 -0.0 0.0 -0.0 32.3189 -26.6395 4.974 -11.9052 -0.304264 -1.79842 42.2541 -21.5157 5.27124 -37.9087 0.0 0.0 0.0 0.0 0.0 
3958.64 640.18 -202.952 -28.5317 47.7028 20.4667 5.93792 0.66192 0.667181 5.93795 0.618125 0.707947 5.94549 0.538275 0.770406 5.94525 0.653189 0.675732 -8.81761 5.75668 -2.34352 -8.82578 12.4082 -0.977563 -0.0 0.0 -0.0 -4.61197 20.6837 -4.30621 -8.01816 -8.39886 83.9798 0.343671 -9.66187 0.0290459 75.081 -3.28394 -8.30853 -3.77007 25.8875 -10.9017 -0.0 0.0 -0.0 6.64939 29.2873 -11.1038 -10.0932 41.2109 -73.7571 0.432235 12.0857 -0.0457568 -62.4739 5.59193 -5.17151 -6.09919 -29.225 21.9411 0.0 0.0 0.0 29.1885 11.4807 -0.632533 -10.3016 0.28517 1.55312 41.5703 25.5084 -5.33366 -23.721 0.0 0.0 -0.0 0.0 -0.0 31.5699 -27.5353 4.00405 -11.9206 -0.304414 -1.80078 42.1265 -20.8841 5.24292 -36.7076 0.0 0.0 0.0 0.0 0.0 
3960.58 632.847 -209.432 -28.9331 48.7241 21.4169 5.9003 0.503786 0.685646 5.90044 0.459136 0.716312 5.90598 0.378771 0.761866 5.90551 0.494337 0.692489 -8.18416 6.06028 -2.47123 -8.18067 13.0577 -1.10648 -0.0 0.0 -0.0 -4.68753 22.0525 -4.07858 -6.02255 -10.0837 82.8982 0.235071 -6.64217 0.013641 74.0857 -3.17497 -8.24186 -4.11177 26.5167 -12.4532 -0.0 0.0 -0.0 6.69101 29.0186 -11.2252 -10.4682 40.4013 -73.4056 0.415782 11.6384 -0.0423747 -60.6084 5.35852 -5.11972 -5.71511 -29.2063 19.7098 0.0 0.0 0.0 29.7048 11.3959 -0.640017 -11.4401 0.299433 1.72723 42.3547 24.9282 -5.38578 -23.5891 0.0 0.0 -0.0 0.0 -0.0 30.9639 -28.1518 3.1988 -12.007 -0.305244 -1.81401 41.7172 -20.4912 5.19642 -35.8857 0.0 0.0 0.0 0.0 0.0 
3960.32 633.029 -212.183 -28.9395 49.4489 21.9007 5.89136 0.397488 0.712639 5.89158 0.351336 0.736486 5.89582 0.269272 0.770285 5.89521 0.387542 0.718096 -8.14111 5.55504 -3.16482 -8.12266 12.6015 -1.91212 -0.0 0.0 -0.0 -4.73509 23.0331 -3.90116 -4.53369 -11.282 82.1476 0.191462 -5.41812 0.00905942 73.2103 -3.08011 -8.18167 -4.54471 27.372 -14.353 -0.0 0.0 -0.0 6.72407 28.8354 -11.3181 -10.3336 39.8543 -73.8472 0.416003 11.6445 -0.0424193 -59.3039 5.19631 -5.07898 -5.56544 -29.2724 18.7935 0.0 0.0 0.0 30.1341 11.3247 -0.652349 -11.592 0.301074 1.75047 42.1916 24.2192 -5.34716 -23.7574 0.0 0.0 -0.0 0.0 -0.0 30.2881 -27.3934 2.56607 -12.0631 -0.305772 -1.8226 40.7753 -20.2967 5.10673 -35.6122 0.0 0.0 0.0 0.0 0.0 
3959.72 634.693 -212.123 -29.2188 49.8419 22.6357 5.88984 0.325829 0.713505 5.89008 0.279768 0.732791 5.89336 0.198489 0.758849 5.8927 0.315842 0.717981 -8.13579 5.14834 -4.2314 -8.09187 12.5927 -3.06273 -0.0 0.0 -0.0 -5.02222 23.0168 -4.30871 -3.64881 -11.1538 81.4334 0.180374 -5.10606 0.00804263 72.16 -2.96752 -8.10756 -5.12548 28.5342 -16.8384 -0.0 0.0 -0.0 6.60472 28.7081 -11.0716 -10.3974 39.5155 -74.1269 0.448462 12.5253 -0.049215 -58.9854 5.15685 -5.06848 -5.7701 -29.1125 20.1051 0.0 0.0 0.0 30.4172 11.2677 -0.708803 -11.6971 0.302173 1.76656 41.9355 23.3644 -5.29671 -23.9849 0.0 0.0 -0.0 0.0 -0.0 29.621 -24.9667 1.73405 -12.0937 -0.306058 -1.8273 41.8795 -21.2642 5.23107 -35.4546 0.0 0.0 0.0 0.0 0.0 
